<svg width="283" height="80" viewBox="0 0 283 80" fill="none" xmlns="http://www.w3.org/2000/svg">
<path d="M278.082 8.63099C276.931 8.63099 275.895 8.19944 274.975 7.33635C274.112 6.4157 273.68 5.37999 273.68 4.22919C273.68 3.13593 274.112 2.15775 274.975 1.29465C275.895 0.431549 276.931 0 278.082 0C279.233 0 280.211 0.431549 281.017 1.29465C281.88 2.10021 282.311 3.07839 282.311 4.22919C282.311 5.37999 281.88 6.4157 281.017 7.33635C280.153 8.19944 279.175 8.63099 278.082 8.63099ZM273.939 18.0388H281.793V61.28H273.939V18.0388Z" fill="#7C7C7C"/>
<path d="M259.81 62.4018C255.552 62.0565 252.532 60.7907 250.748 58.6041C248.964 56.4176 248.072 53.5119 248.072 49.8868V0.862793H256.013V18.0385H264.989L262.918 25.4611H256.013V49.8868C256.013 51.9007 256.531 53.3968 257.566 54.3749C258.602 55.2956 260.127 55.8998 262.141 56.1875L259.81 62.4018Z" fill="#7C7C7C"/>
<path d="M208.526 18.0386H216.035L216.208 19.9374C217.071 19.1894 218.308 18.5853 219.919 18.1249C221.53 17.6071 223.112 17.3481 224.666 17.3481C230.017 17.3481 234.074 18.9017 236.836 22.0089C239.655 25.116 241.065 29.1438 241.065 34.0923V46.0893C241.065 51.3255 239.598 55.3533 236.663 58.1727C233.729 60.9347 229.845 62.3156 225.011 62.3156C222.882 62.3156 221.214 62.1142 220.005 61.7114C218.797 61.3662 217.589 60.762 216.38 59.8989V77.5062L208.526 79.405V18.0386ZM233.211 33.747C233.211 30.8125 232.492 28.626 231.053 27.1875C229.615 25.6914 227.601 24.9434 225.011 24.9434C222.422 24.9434 220.351 25.6627 218.797 27.1012C217.243 28.5397 216.438 30.6111 216.38 33.3155V45.7441C216.38 48.506 217.071 50.6925 218.452 52.3037C219.89 53.8572 222.077 54.634 225.011 54.634C227.831 54.634 229.902 53.8572 231.226 52.3037C232.549 50.6925 233.211 48.2471 233.211 44.9673V33.747Z" fill="#7C7C7C"/>
<path d="M190.676 8.63099C189.525 8.63099 188.489 8.19944 187.569 7.33635C186.706 6.4157 186.274 5.37999 186.274 4.22919C186.274 3.13593 186.706 2.15775 187.569 1.29465C188.489 0.431549 189.525 0 190.676 0C191.827 0 192.805 0.431549 193.611 1.29465C194.474 2.10021 194.905 3.07839 194.905 4.22919C194.905 5.37999 194.474 6.4157 193.611 7.33635C192.747 8.19944 191.769 8.63099 190.676 8.63099ZM186.533 18.0388H194.387V61.28H186.533V18.0388Z" fill="#7C7C7C"/>
<path d="M155.896 18.0386H163.319L163.664 19.3333C166.138 18.0099 168.871 17.3481 171.864 17.3481C173.935 17.3481 176.352 17.6646 179.114 18.2976L177.215 25.8065C175.661 25.116 173.993 24.7708 172.209 24.7708C169.85 24.7708 167.836 25.375 166.167 26.5833C164.556 27.7341 163.75 29.3452 163.75 31.4167V61.2799H155.896V18.0386Z" fill="#7C7C7C"/>
<path d="M148.49 60.7624C144.923 61.6831 141.47 62.1434 138.133 62.1434C135.026 62.1434 132.437 61.7981 130.365 61.1077C126.97 59.9569 124.496 58.2019 122.943 55.8427C121.447 53.4261 120.698 50.06 120.698 45.7445V34.6968C120.698 29.0004 122.195 24.6849 125.187 21.7503C128.179 18.7582 132.034 17.2622 136.752 17.2622C140.492 17.2622 144.347 18.1828 148.318 20.0241L146.16 26.5837C143.34 25.4329 140.665 24.8575 138.133 24.8575C135.141 24.8575 132.782 25.6918 131.056 27.3605C129.387 28.9716 128.553 31.2444 128.553 34.179V46.6939C128.553 49.4558 129.502 51.4409 131.401 52.6493C133.3 53.8576 135.716 54.4618 138.651 54.4618C141.24 54.4618 143.83 54.0878 146.419 53.3398L148.49 60.7624Z" fill="#7C7C7C"/>
<path d="M91.2957 49.7144C91.4108 51.268 92.2164 52.5914 93.7124 53.6846C95.2084 54.7204 97.136 55.2382 99.4952 55.2382C101.624 55.2382 103.379 54.7204 104.76 53.6846C106.199 52.5914 106.918 51.2104 106.918 49.5418C106.918 47.5279 106.141 46.0031 104.587 44.9673C103.091 43.9316 100.79 42.8959 97.6827 41.8602C95.0934 40.9971 92.9644 40.1628 91.2957 39.3572C89.6271 38.5516 88.131 37.3721 86.8076 35.8185C85.5417 34.2649 84.7937 32.251 84.5635 29.7768C84.3909 27.8204 84.7649 25.8641 85.6856 23.9077C86.6638 21.8938 88.2749 20.2539 90.5189 18.9881C92.8205 17.6646 95.7551 17.0029 99.3226 17.0029C101.164 17.0029 102.775 17.2043 104.156 17.6071C105.594 17.9523 106.716 18.3263 107.522 18.7291C108.328 19.1319 108.817 19.3908 108.989 19.5059L106.659 26.5833C106.544 26.4683 106.199 26.2669 105.623 25.9792C105.048 25.6339 104.213 25.3175 103.12 25.0298C102.027 24.6845 100.761 24.5119 99.3226 24.5119C96.8483 24.5119 95.1221 25.0298 94.144 26.0655C93.1658 27.0437 92.763 28.2808 92.9356 29.7768C93.1082 30.9276 93.8275 31.877 95.0934 32.625C96.4168 33.373 98.3444 34.1786 100.876 35.0417C103.811 36.0774 106.227 37.1131 108.126 38.1489C110.025 39.127 111.665 40.5655 113.046 42.4644C114.427 44.3056 115.117 46.6935 115.117 49.6281C115.117 53.2531 113.794 56.3315 111.147 58.8632C108.558 61.3375 104.674 62.5746 99.4952 62.5746C96.2154 62.5746 93.3672 62.0279 90.9505 60.9347C88.5913 59.7839 86.7788 58.2878 85.513 56.4466C84.3046 54.6053 83.6429 52.5626 83.5278 50.3186L91.2957 49.7144Z" fill="#7C7C7C"/>
<path d="M74.9316 58.2594C72.8602 59.5828 70.5011 60.5898 67.8542 61.2803C65.2074 61.9708 62.5606 62.316 59.9137 62.316C55.6558 62.316 52.2609 61.2803 49.7291 59.2088C47.2549 57.0799 46.0178 53.9152 46.0178 49.7147V32.0212C46.0178 27.3605 47.4563 23.7355 50.3333 21.1462C53.2679 18.5569 57.123 17.2622 61.8989 17.2622C66.6747 17.2622 70.386 18.5569 73.0328 21.1462C75.7372 23.6779 77.0894 27.2166 77.0894 31.7623V44.1909L53.9583 45.4856V48.8516C53.9583 50.8655 54.5337 52.4191 55.6845 53.5124C56.8929 54.5481 58.5615 55.066 60.6905 55.066C63.8552 55.066 67.6241 53.9152 71.9971 51.6136L74.9316 58.2594ZM69.1489 31.676C69.1489 29.3168 68.4009 27.5906 66.9048 26.4974C65.4088 25.3466 63.7114 24.7712 61.8125 24.7712C59.3383 24.7712 57.4107 25.4617 56.0298 26.8426C54.6488 28.166 53.9583 29.921 53.9583 32.1075V38.1492L69.1489 37.2861V31.676Z" fill="#7C7C7C"/>
<path d="M0 0.777344H16.2263C22.7283 0.777344 27.6767 2.56108 31.0716 6.12856C34.524 9.69604 36.2502 14.4431 36.2502 20.3697V44.0186C36.2502 55.5266 30.1509 61.2806 17.9525 61.2806H0V0.777344ZM28.396 19.5066C28.396 15.7665 27.3602 13.0046 25.2888 11.2208C23.2749 9.43711 20.5418 8.54524 17.0894 8.54524H7.8542V54.1169H16.5715C20.0814 54.1169 22.9297 53.5127 25.1162 52.3044C27.3027 51.096 28.396 48.6218 28.396 44.8817V19.5066Z" fill="#7C7C7C"/>
</svg>
