<svg width="213" height="61" viewBox="0 0 213 61" fill="none" xmlns="http://www.w3.org/2000/svg">
<path d="M209.809 6.91822C208.941 6.91822 208.16 6.59262 207.465 5.94143C206.814 5.24682 206.488 4.46538 206.488 3.59712C206.488 2.77227 206.814 2.03424 207.465 1.38304C208.16 0.731848 208.941 0.40625 209.809 0.40625C210.678 0.40625 211.416 0.731848 212.023 1.38304C212.675 1.99083 213 2.72885 213 3.59712C213 4.46538 212.675 5.24682 212.023 5.94143C211.372 6.59262 210.634 6.91822 209.809 6.91822ZM206.684 14.0163H212.61V46.6412H206.684V14.0163Z" fill="#7C7C7C"/>
<path d="M196.024 47.4875C192.811 47.227 190.532 46.2719 189.186 44.6222C187.84 42.9725 187.167 40.7802 187.167 38.0451V1.05713H193.158V14.016H199.931L198.368 19.6163H193.158V38.0451C193.158 39.5646 193.549 40.6933 194.33 41.4314C195.112 42.126 196.262 42.5818 197.782 42.7989L196.024 47.4875Z" fill="#7C7C7C"/>
<path d="M157.33 14.0161H162.996L163.126 15.4487C163.777 14.8843 164.711 14.4285 165.926 14.0812C167.142 13.6905 168.336 13.4951 169.508 13.4951C173.545 13.4951 176.606 14.6673 178.69 17.0116C180.817 19.3559 181.88 22.3948 181.88 26.1283V35.18C181.88 39.1306 180.773 42.1695 178.559 44.2967C176.345 46.3806 173.415 47.4225 169.768 47.4225C168.162 47.4225 166.903 47.2705 165.991 46.9666C165.08 46.7062 164.168 46.2503 163.256 45.5991V58.8836L157.33 60.3162V14.0161ZM175.955 25.8679C175.955 23.6538 175.412 22.0041 174.327 20.9188C173.241 19.79 171.722 19.2256 169.768 19.2256C167.815 19.2256 166.252 19.7683 165.08 20.8536C163.907 21.939 163.3 23.5018 163.256 25.5423V34.9195C163.256 37.0033 163.777 38.653 164.819 39.8686C165.904 41.0408 167.554 41.6268 169.768 41.6268C171.895 41.6268 173.458 41.0408 174.457 39.8686C175.455 38.653 175.955 36.808 175.955 34.3334V25.8679Z" fill="#7C7C7C"/>
<path d="M143.863 6.91822C142.994 6.91822 142.213 6.59262 141.518 5.94143C140.867 5.24682 140.542 4.46538 140.542 3.59712C140.542 2.77227 140.867 2.03424 141.518 1.38304C142.213 0.731848 142.994 0.40625 143.863 0.40625C144.731 0.40625 145.469 0.731848 146.077 1.38304C146.728 1.99083 147.053 2.72885 147.053 3.59712C147.053 4.46538 146.728 5.24682 146.077 5.94143C145.425 6.59262 144.687 6.91822 143.863 6.91822ZM140.737 14.0163H146.663V46.6412H140.737V14.0163Z" fill="#7C7C7C"/>
<path d="M117.622 14.0161H123.222L123.482 14.9929C125.349 13.9944 127.411 13.4951 129.669 13.4951C131.232 13.4951 133.055 13.7339 135.139 14.2114L133.706 19.8768C132.534 19.3559 131.275 19.0954 129.929 19.0954C128.149 19.0954 126.63 19.5513 125.371 20.4629C124.155 21.3312 123.547 22.5468 123.547 24.1096V46.6411H117.622V14.0161Z" fill="#7C7C7C"/>
<path d="M112.034 46.2505C109.342 46.9451 106.738 47.2924 104.22 47.2924C101.875 47.2924 99.9217 47.032 98.3588 46.511C95.7975 45.6427 93.9307 44.3186 92.7585 42.5387C91.6298 40.7153 91.0654 38.1757 91.0654 34.9197V26.5844C91.0654 22.2865 92.1942 19.0305 94.4517 16.8164C96.7091 14.5589 99.6178 13.4302 103.178 13.4302C106 13.4302 108.908 14.1248 111.904 15.514L110.276 20.4631C108.148 19.5948 106.13 19.1607 104.22 19.1607C101.962 19.1607 100.182 19.7902 98.8798 21.0492C97.6208 22.2648 96.9913 23.9796 96.9913 26.1936V35.636C96.9913 37.7198 97.7076 39.2176 99.1403 40.1293C100.573 41.0409 102.396 41.4968 104.61 41.4968C106.564 41.4968 108.518 41.2146 110.471 40.6502L112.034 46.2505Z" fill="#7C7C7C"/>
<path d="M68.8815 37.9152C68.9684 39.0874 69.5761 40.0859 70.7049 40.9107C71.8336 41.6922 73.288 42.0829 75.0679 42.0829C76.6742 42.0829 77.9983 41.6922 79.0402 40.9107C80.1255 40.0859 80.6682 39.044 80.6682 37.785C80.6682 36.2655 80.0821 35.1151 78.91 34.3337C77.7812 33.5522 76.0447 32.7708 73.7004 31.9893C71.7468 31.3381 70.1405 30.7087 68.8815 30.1009C67.6225 29.4931 66.4938 28.6031 65.4953 27.431C64.5402 26.2588 63.9758 24.7393 63.8022 22.8726C63.6719 21.3965 63.9541 19.9205 64.6487 18.4444C65.3868 16.925 66.6023 15.6877 68.2954 14.7326C70.032 13.7341 72.246 13.2349 74.9377 13.2349C76.3269 13.2349 77.5424 13.3868 78.5844 13.6907C79.6697 13.9512 80.5162 14.2334 81.124 14.5373C81.7318 14.8411 82.1008 15.0365 82.2311 15.1233L80.4728 20.4632C80.386 20.3763 80.1255 20.2244 79.6914 20.0073C79.2573 19.7468 78.6278 19.5081 77.8029 19.291C76.9781 19.0305 76.023 18.9003 74.9377 18.9003C73.0709 18.9003 71.7685 19.291 71.0305 20.0724C70.2925 20.8105 69.9886 21.7438 70.1188 22.8726C70.249 23.7408 70.7917 24.4572 71.7468 25.0215C72.7453 25.5859 74.1996 26.1937 76.1098 26.8449C78.3239 27.6263 80.1472 28.4078 81.5799 29.1892C83.0125 29.9272 84.2498 31.0125 85.2917 32.4452C86.3336 33.8344 86.8546 35.6361 86.8546 37.8501C86.8546 40.5852 85.8561 42.9078 83.8591 44.8179C81.9055 46.6847 78.9751 47.6181 75.0679 47.6181C72.5933 47.6181 70.4444 47.2057 68.621 46.3808C66.8411 45.5125 65.4736 44.3838 64.5185 42.9946C63.6068 41.6054 63.1076 40.0642 63.0208 38.3711L68.8815 37.9152Z" fill="#7C7C7C"/>
<path d="M56.5351 44.362C54.9722 45.3605 53.1923 46.1203 51.1953 46.6412C49.1983 47.1622 47.2012 47.4227 45.2042 47.4227C41.9917 47.4227 39.4303 46.6412 37.5201 45.0784C35.6534 43.4721 34.72 41.0843 34.72 37.9152V24.5657C34.72 21.0492 35.8053 18.3142 37.976 16.3606C40.19 14.407 43.0987 13.4302 46.702 13.4302C50.3053 13.4302 53.1054 14.407 55.1024 16.3606C57.1429 18.2707 58.1631 20.9407 58.1631 24.3703V33.7475L40.711 34.7243V37.264C40.711 38.7835 41.1451 39.9556 42.0134 40.7805C42.9251 41.5619 44.184 41.9526 45.7903 41.9526C48.178 41.9526 51.0216 41.0843 54.321 39.3478L56.5351 44.362ZM52.1721 24.3052C52.1721 22.5252 51.6077 21.2228 50.4789 20.398C49.3502 19.5297 48.0695 19.0956 46.6369 19.0956C44.7701 19.0956 43.3158 19.6166 42.2739 20.6585C41.2319 21.657 40.711 22.9811 40.711 24.6308V29.1892L52.1721 28.538V24.3052Z" fill="#7C7C7C"/>
<path d="M0 0.992676H12.2425C17.1482 0.992676 20.8817 2.33848 23.4431 5.0301C26.0479 7.72171 27.3503 11.3033 27.3503 15.7749V33.6177C27.3503 42.3003 22.7485 46.6416 13.5449 46.6416H0V0.992676ZM21.4244 15.1237C21.4244 12.3018 20.6429 10.218 19.0801 8.87216C17.5606 7.52636 15.4985 6.85345 12.8937 6.85345H5.92589V41.2367H12.503C15.1512 41.2367 17.3001 40.7808 18.9498 39.8691C20.5995 38.9575 21.4244 37.0907 21.4244 34.2689V15.1237Z" fill="#7C7C7C"/>
</svg>
