<svg width="342" height="96" viewBox="0 0 342 96" fill="none" xmlns="http://www.w3.org/2000/svg">
<path d="M336.198 10.4348C334.807 10.4348 333.554 9.91304 332.441 8.86956C331.398 7.75652 330.876 6.50435 330.876 5.11304C330.876 3.7913 331.398 2.6087 332.441 1.56521C333.554 0.521738 334.807 0 336.198 0C337.589 0 338.772 0.521738 339.746 1.56521C340.789 2.53913 341.311 3.72174 341.311 5.11304C341.311 6.50435 340.789 7.75652 339.746 8.86956C338.702 9.91304 337.52 10.4348 336.198 10.4348ZM331.189 21.8087H340.685V74.0869H331.189V21.8087Z" fill="#7C7C7C"/>
<path d="M314.108 75.4434C308.96 75.026 305.308 73.4956 303.152 70.8521C300.995 68.2086 299.917 64.6956 299.917 60.313V1.04346H309.517V21.8087H320.369L317.865 30.7826H309.517V60.313C309.517 62.7478 310.143 64.5565 311.395 65.7391C312.647 66.8521 314.491 67.5826 316.925 67.9304L314.108 75.4434Z" fill="#7C7C7C"/>
<path d="M252.106 21.8089H261.184L261.393 24.1046C262.436 23.2002 263.932 22.4698 265.88 21.9132C267.828 21.2872 269.741 20.9741 271.619 20.9741C278.089 20.9741 282.993 22.8524 286.332 26.6089C289.741 30.3654 291.445 35.235 291.445 41.2176V55.7219C291.445 62.0524 289.671 66.9219 286.123 70.3306C282.576 73.6697 277.88 75.3393 272.036 75.3393C269.462 75.3393 267.445 75.0958 265.984 74.6089C264.523 74.1915 263.062 73.4611 261.602 72.4176V93.7045L252.106 96.0002V21.8089ZM281.949 40.8002C281.949 37.2524 281.08 34.6089 279.341 32.8698C277.602 31.0611 275.167 30.1567 272.036 30.1567C268.906 30.1567 266.402 31.0263 264.523 32.7654C262.645 34.5045 261.671 37.0089 261.602 40.2785V55.3045C261.602 58.6437 262.436 61.2871 264.106 63.235C265.845 65.1132 268.489 66.0524 272.036 66.0524C275.445 66.0524 277.949 65.1132 279.549 63.235C281.149 61.2871 281.949 58.3306 281.949 54.3654V40.8002Z" fill="#7C7C7C"/>
<path d="M230.525 10.4348C229.134 10.4348 227.882 9.91304 226.769 8.86956C225.725 7.75652 225.204 6.50435 225.204 5.11304C225.204 3.7913 225.725 2.6087 226.769 1.56521C227.882 0.521738 229.134 0 230.525 0C231.917 0 233.099 0.521738 234.073 1.56521C235.117 2.53913 235.638 3.72174 235.638 5.11304C235.638 6.50435 235.117 7.75652 234.073 8.86956C233.03 9.91304 231.847 10.4348 230.525 10.4348ZM225.517 21.8087H235.012V74.0869H225.517V21.8087Z" fill="#7C7C7C"/>
<path d="M188.477 21.8089H197.451L197.868 23.3741C200.86 21.7741 204.164 20.9741 207.781 20.9741C210.286 20.9741 213.207 21.3567 216.547 22.1219L214.251 31.2002C212.373 30.3654 210.355 29.948 208.199 29.948C205.347 29.948 202.912 30.6785 200.894 32.1393C198.947 33.5306 197.973 35.4785 197.973 37.9828V74.0871H188.477V21.8089Z" fill="#7C7C7C"/>
<path d="M179.523 73.4609C175.21 74.574 171.036 75.1305 167.001 75.1305C163.245 75.1305 160.114 74.7131 157.61 73.8783C153.505 72.487 150.514 70.3653 148.636 67.5131C146.827 64.5914 145.923 60.5218 145.923 55.3044V41.9479C145.923 35.0609 147.732 29.8435 151.349 26.2957C154.966 22.6783 159.627 20.8696 165.332 20.8696C169.853 20.8696 174.514 21.9827 179.314 24.2088L176.705 32.1392C173.297 30.7479 170.062 30.0522 167.001 30.0522C163.384 30.0522 160.532 31.0609 158.445 33.0783C156.427 35.0261 155.419 37.774 155.419 41.3218V56.4522C155.419 59.7914 156.566 62.1914 158.862 63.6522C161.158 65.1131 164.079 65.8435 167.627 65.8435C170.758 65.8435 173.888 65.3914 177.019 64.487L179.523 73.4609Z" fill="#7C7C7C"/>
<path d="M110.375 60.1044C110.515 61.9827 111.488 63.5827 113.297 64.9044C115.106 66.1566 117.436 66.7827 120.288 66.7827C122.862 66.7827 124.984 66.1566 126.654 64.9044C128.393 63.5827 129.262 61.9131 129.262 59.8958C129.262 57.461 128.323 55.6175 126.445 54.3653C124.636 53.1131 121.854 51.861 118.097 50.6088C114.967 49.5653 112.393 48.5566 110.375 47.5827C108.358 46.6088 106.549 45.1827 104.949 43.3045C103.419 41.4262 102.515 38.9914 102.236 36.0001C102.028 33.6349 102.48 31.2697 103.593 28.9045C104.775 26.4697 106.723 24.4871 109.436 22.9566C112.219 21.3566 115.767 20.5566 120.08 20.5566C122.306 20.5566 124.254 20.8001 125.923 21.2871C127.662 21.7045 129.019 22.1566 129.993 22.6436C130.967 23.1306 131.558 23.4436 131.767 23.5827L128.949 32.1392C128.81 32.0001 128.393 31.7566 127.697 31.4088C127.002 30.9914 125.993 30.6088 124.671 30.261C123.349 29.8436 121.819 29.6349 120.08 29.6349C117.088 29.6349 115.002 30.261 113.819 31.5132C112.636 32.6958 112.149 34.1914 112.358 36.0001C112.567 37.3914 113.436 38.5392 114.967 39.4436C116.567 40.3479 118.897 41.3219 121.958 42.3653C125.506 43.6175 128.428 44.8697 130.723 46.1219C133.019 47.3045 135.002 49.0436 136.671 51.3392C138.341 53.5653 139.175 56.4523 139.175 60.0001C139.175 64.3827 137.575 68.1044 134.375 71.1653C131.245 74.1566 126.549 75.6523 120.288 75.6523C116.323 75.6523 112.88 74.9914 109.958 73.6697C107.106 72.2784 104.915 70.4697 103.384 68.2436C101.923 66.0175 101.123 63.5479 100.984 60.8349L110.375 60.1044Z" fill="#7C7C7C"/>
<path d="M90.5915 70.4348C88.0872 72.0348 85.235 73.2522 82.035 74.087C78.835 74.9218 75.635 75.3392 72.435 75.3392C67.2872 75.3392 63.1828 74.087 60.122 71.5827C57.1307 69.0087 55.635 65.1827 55.635 60.1044V38.7131C55.635 33.0783 57.3741 28.6957 60.8524 25.5653C64.4002 22.4348 69.0611 20.8696 74.835 20.8696C80.6089 20.8696 85.0959 22.4348 88.2959 25.5653C91.5654 28.6261 93.2002 32.9044 93.2002 38.4001V53.4261L65.235 54.9914V59.0609C65.235 61.4957 65.9307 63.374 67.322 64.6957C68.7828 65.9479 70.8002 66.574 73.3741 66.574C77.2002 66.574 81.7567 65.1827 87.0437 62.4L90.5915 70.4348ZM83.6002 38.2957C83.6002 35.4435 82.6959 33.3566 80.8872 32.0348C79.0785 30.6435 77.0263 29.9479 74.7307 29.9479C71.7394 29.9479 69.4089 30.7827 67.7394 32.4522C66.0698 34.0522 65.235 36.174 65.235 38.8174V46.1218L83.6002 45.0783V38.2957Z" fill="#7C7C7C"/>
<path d="M0 0.939453H19.6174C27.4783 0.939453 33.4609 3.09597 37.5652 7.40901C41.7391 11.7221 43.8261 17.4612 43.8261 24.6264V53.2177C43.8261 67.1307 36.4522 74.0873 21.7043 74.0873H0V0.939453ZM34.3304 23.5829C34.3304 19.0612 33.0782 15.7221 30.5739 13.5655C28.1391 11.409 24.8348 10.3308 20.6609 10.3308H9.49565V65.4264H20.0348C24.2783 65.4264 27.7217 64.696 30.3652 63.2351C33.0087 61.7742 34.3304 58.7829 34.3304 54.2612V23.5829Z" fill="#7C7C7C"/>
</svg>
