<svg width="177" height="36" viewBox="0 0 177 36" fill="none" xmlns="http://www.w3.org/2000/svg">
<path d="M176.407 13.9791C176.407 13.9791 176.193 13.9462 175.765 13.8803C175.37 13.7815 174.794 13.7322 174.036 13.7322C173.444 13.7322 172.818 13.7815 172.159 13.8803C171.534 13.9462 170.908 14.0615 170.282 14.2261C169.69 14.3908 169.097 14.5883 168.504 14.8189C167.944 15.0164 167.434 15.2469 166.973 15.5104V35.071H162.379V10.3239H166.973V11.5094C167.928 10.9495 168.949 10.505 170.035 10.1757C171.155 9.84637 172.374 9.66526 173.691 9.63232C174.382 9.63232 175.024 9.69818 175.617 9.82991C176.21 9.9287 176.671 10.044 177 10.1757L176.407 13.9791Z" fill="#7C7C7C"/>
<path d="M145.114 27.9577C145.114 28.5505 145.196 29.0609 145.361 29.489C145.559 29.9171 145.806 30.2793 146.102 30.5757C146.431 30.8721 146.826 31.1026 147.288 31.2672C147.749 31.399 148.259 31.4648 148.819 31.4648C149.807 31.4648 150.877 31.2837 152.03 30.9215C153.182 30.5263 154.302 30.0488 155.388 29.489L157.068 33.3419C155.915 34.0663 154.598 34.6426 153.116 35.0707C151.634 35.4988 150.202 35.7128 148.819 35.7128C147.633 35.7128 146.53 35.5647 145.509 35.2683C144.488 35.0048 143.599 34.5932 142.842 34.0334C142.085 33.4406 141.492 32.6833 141.064 31.7612C140.669 30.8392 140.471 29.7195 140.471 28.4023V18.2762C140.471 16.3992 140.866 14.835 141.656 13.5836C142.48 12.3323 143.583 11.3938 144.966 10.7681C146.349 10.1424 147.897 9.82959 149.609 9.82959C151.387 9.82959 152.919 10.1424 154.203 10.7681C155.52 11.3938 156.524 12.3158 157.216 13.5343C157.94 14.7527 158.303 16.2839 158.303 18.128V25.4386L145.114 26.1301V27.9577ZM153.758 19.0172C153.758 18.128 153.61 17.3048 153.314 16.5474C153.017 15.79 152.573 15.1808 151.98 14.7197C151.387 14.2587 150.581 14.0611 149.56 14.127C148.473 14.127 147.6 14.341 146.942 14.7691C146.283 15.1643 145.806 15.7406 145.509 16.498C145.246 17.2225 145.114 18.1116 145.114 19.1653V21.8821L153.758 21.3881V19.0172Z" fill="#7C7C7C"/>
<path d="M136.01 10.3237V14.4236L124.204 30.7241L136.701 30.7735V35.0709H118.474V30.7735L130.28 14.5224L118.919 14.473V10.3237H136.01Z" fill="#7C7C7C"/>
<path d="M110.102 28.5503C110.102 29.3077 110.233 29.9498 110.497 30.4767C110.793 30.9707 111.205 31.3494 111.732 31.6128C112.259 31.8433 112.884 32.008 113.609 32.1068L112.275 35.7126C110.003 35.4821 108.307 34.7741 107.187 33.5886C106.068 32.4032 105.508 30.7237 105.508 28.5503V0.493652H110.102V10.3728H115.239L114.103 14.5714H110.102V28.5503Z" fill="#7C7C7C"/>
<path d="M100.963 13.9791C100.963 13.9791 100.749 13.9462 100.321 13.8803C99.9261 13.7815 99.3498 13.7322 98.5924 13.7322C97.9996 13.7322 97.374 13.7815 96.7154 13.8803C96.0897 13.9462 95.464 14.0615 94.8383 14.2261C94.2456 14.3908 93.6528 14.5883 93.0601 14.8189C92.5003 15.0164 91.9899 15.2469 91.5288 15.5104V35.071H86.9351V10.3239H91.5288V11.5094C92.4838 10.9495 93.5047 10.505 94.5914 10.1757C95.711 9.84637 96.9294 9.66526 98.2466 9.63232C98.9382 9.63232 99.5803 9.69818 100.173 9.82991C100.766 9.9287 101.227 10.044 101.556 10.1757L100.963 13.9791Z" fill="#7C7C7C"/>
<path d="M78.1942 18.2761C78.1942 17.2224 78.046 16.3662 77.7496 15.7076C77.4862 15.049 77.091 14.5386 76.5641 14.1763C76.0701 13.7812 75.4445 13.5012 74.6871 13.3366C73.9297 13.1719 73.0735 13.0896 72.1185 13.0896L72.4643 9.87891C74.3742 9.87891 75.9714 10.06 77.2556 10.4223C78.5729 10.7516 79.6266 11.3278 80.417 12.1511C81.2402 12.9414 81.833 13.9952 82.1952 15.3124C82.5574 16.6296 82.7385 18.2597 82.7385 20.2026V35.0706C82.3763 35.1036 81.9482 35.1529 81.4543 35.2188C80.9603 35.2847 80.417 35.3341 79.8242 35.367C79.2315 35.4329 78.6058 35.4658 77.9472 35.4658C77.3215 35.4987 76.6794 35.5316 76.0208 35.5646C75.3951 35.5975 74.7859 35.614 74.1931 35.614C72.7113 35.614 71.3282 35.4823 70.0439 35.2188C68.7925 34.9883 67.6894 34.5602 66.7344 33.9345C65.7794 33.2759 65.022 32.4033 64.4622 31.3166C63.9353 30.1969 63.6719 28.8139 63.6719 27.1673V22.5736C63.6719 21.2893 63.853 20.1861 64.2152 19.2641C64.6104 18.3091 65.1373 17.5517 65.7959 16.9919C66.4545 16.3991 67.1954 15.9546 68.0187 15.6582C68.8749 15.3618 69.764 15.2136 70.686 15.2136C71.6081 15.2136 72.5301 15.3453 73.4522 15.6088C74.3742 15.8393 75.2469 16.1851 76.0701 16.6461C76.9263 17.1071 77.6343 17.6505 78.1942 18.2761ZM78.1942 21.7338C77.799 21.5033 77.2392 21.2399 76.5147 20.9435C75.7902 20.6142 74.9999 20.3343 74.1437 20.1038C73.3205 19.8733 72.4807 19.758 71.6245 19.758C71.2294 19.758 70.8342 19.8074 70.4391 19.9062C70.0439 20.005 69.6817 20.1696 69.3524 20.4002C69.0231 20.6307 68.7596 20.9764 68.562 21.4375C68.3645 21.8656 68.2657 22.4089 68.2657 23.0675V26.4264C68.2657 27.2497 68.348 27.9741 68.5126 28.5998C68.6773 29.2255 68.9737 29.7524 69.4018 30.1805C69.8299 30.6086 70.4391 30.9379 71.2294 31.1684C72.0526 31.366 73.1229 31.4647 74.4401 31.4647C74.7694 31.4318 75.0987 31.4154 75.428 31.4154C75.7902 31.3824 76.136 31.3495 76.4653 31.3166C76.7946 31.2836 77.091 31.2672 77.3544 31.2672C77.6179 31.2342 77.8155 31.2178 77.9472 31.2178C78.1118 31.1848 78.1942 31.1684 78.1942 31.1684V21.7338Z" fill="#7C7C7C"/>
<path d="M55.1595 18.1778C55.1595 17.4862 55.0277 16.877 54.7643 16.3501C54.5338 15.8232 54.2045 15.3951 53.7764 15.0658C53.3483 14.7365 52.8543 14.4896 52.2945 14.3249C51.7676 14.1273 51.2078 14.0285 50.6151 14.0285C50.187 14.0285 49.7095 14.0779 49.1826 14.1767C48.6557 14.2755 48.0959 14.4402 47.5032 14.6707C46.9104 14.9012 46.3177 15.1811 45.7249 15.5104C45.8237 15.8726 45.8896 16.2678 45.9225 16.6959C45.9554 17.124 45.9719 17.5685 45.9719 18.0296V35.071H41.5263V18.1778C41.5263 17.4862 41.3946 16.877 41.1311 16.3501C40.9006 15.8232 40.5878 15.3951 40.1926 15.0658C39.7975 14.7365 39.32 14.4896 38.7602 14.3249C38.2003 14.1273 37.6241 14.0285 37.0313 14.0285C36.5374 14.0285 36.0269 14.0779 35.5001 14.1767C35.0061 14.2755 34.5121 14.4402 34.0182 14.6707C33.5242 14.8683 32.9973 15.1152 32.4375 15.4116V35.071H27.8438V10.3239H32.4375V11.7069C32.8327 11.4435 33.3102 11.1801 33.87 10.9166C34.4298 10.6532 35.039 10.4227 35.6976 10.2251C36.3562 10.0275 37.0642 9.92871 37.8216 9.92871C38.6778 9.92871 39.5011 10.011 40.2914 10.1757C41.0817 10.3403 41.8227 10.6202 42.5142 11.0154C43.2058 11.3776 43.7985 11.8551 44.2925 12.4479C44.9181 11.9869 45.5932 11.5752 46.3177 11.213C47.0751 10.8178 47.8819 10.505 48.7381 10.2745C49.5942 10.044 50.4834 9.92871 51.4054 9.92871C52.525 9.92871 53.5788 10.0769 54.5667 10.3733C55.5546 10.6367 56.4273 11.0977 57.1847 11.7563C57.9421 12.382 58.5348 13.2217 58.9629 14.2755C59.4239 15.2964 59.6545 16.5477 59.6545 18.0296V35.071H55.1595V18.1778Z" fill="#7C7C7C"/>
<path d="M19.2643 5.68048C18.6056 5.35118 17.9141 5.08774 17.1896 4.89016C16.4652 4.65964 15.7242 4.49499 14.9668 4.3962C14.2424 4.29741 13.5014 4.24801 12.744 4.24801C12.0854 4.24801 11.3774 4.31388 10.62 4.4456C9.89557 4.57732 9.18757 4.80783 8.49603 5.13713C7.83742 5.43351 7.29407 5.8616 6.86598 6.42142C6.43788 6.98123 6.22384 7.67277 6.22384 8.49603C6.22384 9.28636 6.47081 9.99436 6.96477 10.62C7.45872 11.2457 8.11733 11.8055 8.94059 12.2995C9.76385 12.7934 10.6859 13.2709 11.7067 13.732C12.7605 14.16 13.8472 14.6211 14.9668 15.115C16.0865 15.609 17.1567 16.1688 18.1776 16.7945C19.2313 17.3872 20.1698 18.0952 20.9931 18.9185C21.8164 19.7088 22.475 20.6473 22.9689 21.734C23.4629 22.8207 23.7098 24.0885 23.7098 25.5375C23.7098 27.3157 23.3805 28.847 22.7219 30.1313C22.0633 31.4155 21.1577 32.4693 20.0052 33.2926C18.8526 34.1158 17.5519 34.7086 16.1029 35.0708C14.654 35.466 13.1392 35.6636 11.5586 35.6636C10.1096 35.6636 8.67715 35.466 7.26114 35.0708C5.87807 34.7086 4.56085 34.1652 3.3095 33.4408C2.09108 32.7163 0.98791 31.7942 0 30.6746L2.61796 27.6615C3.3095 28.4518 4.14922 29.1269 5.13713 29.6867C6.15797 30.2465 7.21175 30.6746 8.29845 30.971C9.41808 31.2344 10.5048 31.3661 11.5586 31.3661C12.4806 31.3661 13.3697 31.2509 14.2259 31.0204C15.0821 30.7899 15.856 30.4441 16.5475 29.9831C17.272 29.4891 17.8318 28.8799 18.2269 28.1554C18.6221 27.398 18.8197 26.4925 18.8197 25.4387C18.8197 24.4837 18.5727 23.644 18.0788 22.9195C17.6177 22.195 16.9756 21.5529 16.1523 20.9931C15.3291 20.4333 14.3906 19.9229 13.3368 19.4618C12.3159 18.9679 11.2622 18.4904 10.1755 18.0294C9.08878 17.5354 8.035 17.0085 7.01416 16.4487C5.99332 15.8889 5.07127 15.2467 4.24801 14.5223C3.42476 13.7978 2.76615 12.9581 2.27219 12.0031C1.77824 11.0152 1.53126 9.8791 1.53126 8.59482C1.53126 7.01416 1.86056 5.68048 2.51917 4.59378C3.21071 3.50708 4.11629 2.63443 5.23592 1.97582C6.35556 1.28428 7.57398 0.790328 8.89119 0.493955C10.2084 0.164652 11.5092 0 12.7934 0C13.6826 0 14.5717 0.0658612 15.4608 0.197583C16.3499 0.329304 17.2226 0.526886 18.0788 0.790329C18.9679 1.05377 19.7911 1.39954 20.5485 1.82763L19.2643 5.68048Z" fill="#7C7C7C"/>
</svg>
