<svg width="380" height="77" viewBox="0 0 380 77" fill="none" xmlns="http://www.w3.org/2000/svg">
<path d="M378.56 29.9979C378.56 29.9979 378.101 29.9273 377.182 29.7859C376.334 29.5739 375.097 29.4679 373.472 29.4679C372.2 29.4679 370.857 29.5739 369.444 29.7859C368.101 29.9273 366.759 30.1746 365.416 30.5279C364.144 30.8813 362.872 31.3053 361.6 31.7999C360.399 32.2239 359.303 32.7186 358.314 33.2839V75.2599H348.456V22.1539H358.314V24.6979C360.363 23.4966 362.554 22.5426 364.886 21.8359C367.289 21.1293 369.903 20.7406 372.73 20.6699C374.214 20.6699 375.592 20.8113 376.864 21.0939C378.136 21.3059 379.125 21.5533 379.832 21.8359L378.56 29.9979Z" fill="#7C7C7C"/>
<path d="M311.406 59.9962C311.406 61.2682 311.583 62.3636 311.936 63.2822C312.36 64.2009 312.89 64.9782 313.526 65.6142C314.233 66.2502 315.081 66.7449 316.07 67.0982C317.06 67.3809 318.155 67.5222 319.356 67.5222C321.476 67.5222 323.773 67.1336 326.246 66.3562C328.72 65.5082 331.122 64.4836 333.454 63.2822L337.058 71.5502C334.585 73.1049 331.758 74.3416 328.578 75.2602C325.398 76.1789 322.324 76.6382 319.356 76.6382C316.812 76.6382 314.445 76.3202 312.254 75.6842C310.064 75.1189 308.156 74.2356 306.53 73.0342C304.905 71.7622 303.633 70.1369 302.714 68.1582C301.866 66.1796 301.442 63.7769 301.442 60.9502V39.2202C301.442 35.1922 302.29 31.8356 303.986 29.1502C305.753 26.4649 308.12 24.4509 311.088 23.1082C314.056 21.7656 317.378 21.0942 321.052 21.0942C324.868 21.0942 328.154 21.7656 330.91 23.1082C333.737 24.4509 335.892 26.4296 337.376 29.0442C338.931 31.6589 339.708 34.9449 339.708 38.9022V54.5902L311.406 56.0742V59.9962ZM329.956 40.8102C329.956 38.9022 329.638 37.1356 329.002 35.5102C328.366 33.8849 327.412 32.5776 326.14 31.5882C324.868 30.5989 323.137 30.1749 320.946 30.3162C318.614 30.3162 316.742 30.7756 315.328 31.6942C313.915 32.5422 312.89 33.7789 312.254 35.4042C311.689 36.9589 311.406 38.8669 311.406 41.1282V46.9582L329.956 45.8982V40.8102Z" fill="#7C7C7C"/>
<path d="M291.869 22.1538V30.9518L266.535 65.9318L293.353 66.0378V75.2598H254.239V66.0378L279.573 31.1638L255.193 31.0578V22.1538H291.869Z" fill="#7C7C7C"/>
<path d="M236.272 61.2681C236.272 62.8934 236.554 64.2714 237.12 65.4021C237.756 66.4621 238.639 67.2747 239.77 67.8401C240.9 68.3347 242.243 68.6881 243.798 68.9001L240.936 76.6381C236.06 76.1434 232.42 74.6241 230.018 72.0801C227.615 69.5361 226.414 65.9321 226.414 61.2681V1.06006H236.272V22.2601H247.296L244.858 31.2701H236.272V61.2681Z" fill="#7C7C7C"/>
<path d="M216.662 29.9979C216.662 29.9979 216.202 29.9273 215.284 29.7859C214.436 29.5739 213.199 29.4679 211.574 29.4679C210.302 29.4679 208.959 29.5739 207.546 29.7859C206.203 29.9273 204.86 30.1746 203.518 30.5279C202.246 30.8813 200.974 31.3053 199.702 31.7999C198.5 32.2239 197.405 32.7186 196.416 33.2839V75.2599H186.558V22.1539H196.416V24.6979C198.465 23.4966 200.656 22.5426 202.988 21.8359C205.39 21.1293 208.005 20.7406 210.832 20.6699C212.316 20.6699 213.694 20.8113 214.966 21.0939C216.238 21.3059 217.227 21.5533 217.934 21.8359L216.662 29.9979Z" fill="#7C7C7C"/>
<path d="M167.8 39.2202C167.8 36.9589 167.482 35.1215 166.846 33.7082C166.28 32.2949 165.432 31.1995 164.302 30.4222C163.242 29.5742 161.899 28.9735 160.274 28.6202C158.648 28.2669 156.811 28.0902 154.762 28.0902L155.504 21.2002C159.602 21.2002 163.03 21.5889 165.786 22.3662C168.612 23.0729 170.874 24.3095 172.57 26.0762C174.336 27.7722 175.608 30.0335 176.386 32.8602C177.163 35.6869 177.552 39.1849 177.552 43.3542V75.2602C176.774 75.3309 175.856 75.4369 174.796 75.5782C173.736 75.7195 172.57 75.8255 171.298 75.8962C170.026 76.0375 168.683 76.1082 167.27 76.1082C165.927 76.1789 164.549 76.2495 163.136 76.3202C161.793 76.3909 160.486 76.4262 159.214 76.4262C156.034 76.4262 153.066 76.1435 150.31 75.5782C147.624 75.0835 145.257 74.1649 143.208 72.8222C141.158 71.4089 139.533 69.5362 138.332 67.2042C137.201 64.8015 136.636 61.8335 136.636 58.3002V48.4422C136.636 45.6862 137.024 43.3189 137.802 41.3402C138.65 39.2909 139.78 37.6655 141.194 36.4642C142.607 35.1922 144.197 34.2382 145.964 33.6022C147.801 32.9662 149.709 32.6482 151.688 32.6482C153.666 32.6482 155.645 32.9309 157.624 33.4962C159.602 33.9909 161.475 34.7329 163.242 35.7222C165.079 36.7115 166.598 37.8775 167.8 39.2202ZM167.8 46.6402C166.952 46.1455 165.75 45.5802 164.196 44.9442C162.641 44.2375 160.945 43.6369 159.108 43.1422C157.341 42.6475 155.539 42.4002 153.702 42.4002C152.854 42.4002 152.006 42.5062 151.158 42.7182C150.31 42.9302 149.532 43.2835 148.826 43.7782C148.119 44.2729 147.554 45.0149 147.13 46.0042C146.706 46.9229 146.494 48.0889 146.494 49.5022V56.7102C146.494 58.4769 146.67 60.0315 147.024 61.3742C147.377 62.7169 148.013 63.8475 148.932 64.7662C149.85 65.6849 151.158 66.3915 152.854 66.8862C154.62 67.3102 156.917 67.5222 159.744 67.5222C160.45 67.4515 161.157 67.4162 161.864 67.4162C162.641 67.3455 163.383 67.2749 164.09 67.2042C164.796 67.1335 165.432 67.0982 165.998 67.0982C166.563 67.0275 166.987 66.9922 167.27 66.9922C167.623 66.9215 167.8 66.8862 167.8 66.8862V46.6402Z" fill="#7C7C7C"/>
<path d="M118.369 39.0082C118.369 37.5242 118.086 36.2168 117.521 35.0862C117.026 33.9555 116.32 33.0368 115.401 32.3301C114.482 31.6235 113.422 31.0935 112.221 30.7402C111.09 30.3161 109.889 30.1041 108.617 30.1041C107.698 30.1041 106.674 30.2101 105.543 30.4221C104.412 30.6341 103.211 30.9875 101.939 31.4821C100.667 31.9768 99.395 32.5775 98.123 33.2841C98.335 34.0615 98.4763 34.9095 98.547 35.8282C98.6176 36.7468 98.653 37.7008 98.653 38.6902V75.2602H89.113V39.0082C89.113 37.5242 88.8303 36.2168 88.265 35.0862C87.7703 33.9555 87.099 33.0368 86.251 32.3301C85.403 31.6235 84.3783 31.0935 83.177 30.7402C81.9756 30.3161 80.739 30.1041 79.467 30.1041C78.407 30.1041 77.3116 30.2101 76.181 30.4221C75.121 30.6341 74.061 30.9875 73.001 31.4821C71.941 31.9061 70.8103 32.4361 69.609 33.0721V75.2602H59.751V22.1541H69.609V25.1222C70.457 24.5568 71.4816 23.9915 72.683 23.4261C73.8843 22.8608 75.1916 22.3662 76.605 21.9422C78.0183 21.5182 79.5376 21.3062 81.163 21.3062C83.0003 21.3062 84.767 21.4828 86.463 21.8362C88.159 22.1895 89.749 22.7901 91.233 23.6381C92.717 24.4155 93.989 25.4401 95.049 26.7121C96.3916 25.7228 97.8403 24.8395 99.395 24.0621C101.02 23.2141 102.752 22.5428 104.589 22.0481C106.426 21.5535 108.334 21.3062 110.313 21.3062C112.716 21.3062 114.977 21.6242 117.097 22.2602C119.217 22.8255 121.09 23.8148 122.715 25.2281C124.34 26.5708 125.612 28.3728 126.531 30.6341C127.52 32.8248 128.015 35.5102 128.015 38.6902V75.2602H118.369V39.0082Z" fill="#7C7C7C"/>
<path d="M41.34 12.19C39.9267 11.4833 38.4427 10.918 36.888 10.494C35.3333 9.99934 33.7433 9.646 32.118 9.434C30.5633 9.222 28.9733 9.116 27.348 9.116C25.9347 9.116 24.4153 9.25734 22.79 9.54C21.2353 9.82267 19.716 10.3173 18.232 11.024C16.8187 11.66 15.6527 12.5787 14.734 13.78C13.8153 14.9813 13.356 16.4653 13.356 18.232C13.356 19.928 13.886 21.4473 14.946 22.79C16.006 24.1327 17.4193 25.334 19.186 26.394C20.9527 27.454 22.9313 28.4787 25.122 29.468C27.3833 30.3867 29.7153 31.376 32.118 32.436C34.5207 33.496 36.8173 34.6973 39.008 36.04C41.2693 37.312 43.2833 38.8313 45.05 40.598C46.8167 42.294 48.23 44.308 49.29 46.64C50.35 48.972 50.88 51.6927 50.88 54.802C50.88 58.618 50.1733 61.904 48.76 64.66C47.3467 67.416 45.4033 69.6773 42.93 71.444C40.4567 73.2107 37.6653 74.4827 34.556 75.26C31.4467 76.108 28.196 76.532 24.804 76.532C21.6947 76.532 18.6207 76.108 15.582 75.26C12.614 74.4827 9.78733 73.3167 7.102 71.762C4.48733 70.2073 2.12 68.2287 0 65.826L5.618 59.36C7.102 61.056 8.904 62.5047 11.024 63.706C13.2147 64.9073 15.476 65.826 17.808 66.462C20.2107 67.0273 22.5427 67.31 24.804 67.31C26.7827 67.31 28.6907 67.0627 30.528 66.568C32.3653 66.0733 34.026 65.3313 35.51 64.342C37.0647 63.282 38.266 61.9747 39.114 60.42C39.962 58.7947 40.386 56.8513 40.386 54.59C40.386 52.5407 39.856 50.7387 38.796 49.184C37.8067 47.6293 36.4287 46.2513 34.662 45.05C32.8953 43.8487 30.8813 42.7533 28.62 41.764C26.4293 40.704 24.168 39.6793 21.836 38.69C19.504 37.63 17.2427 36.4993 15.052 35.298C12.8613 34.0967 10.8827 32.7187 9.116 31.164C7.34933 29.6093 5.936 27.8073 4.876 25.758C3.816 23.638 3.286 21.2 3.286 18.444C3.286 15.052 3.99267 12.19 5.406 9.858C6.89 7.526 8.83333 5.65333 11.236 4.24C13.6387 2.756 16.2533 1.696 19.08 1.06C21.9067 0.353333 24.698 0 27.454 0C29.362 0 31.27 0.141334 33.178 0.424002C35.086 0.706669 36.9587 1.13067 38.796 1.696C40.704 2.26133 42.4707 3.00333 44.096 3.922L41.34 12.19Z" fill="#7C7C7C"/>
</svg>
