<svg width="236" height="48" viewBox="0 0 236 48" fill="none" xmlns="http://www.w3.org/2000/svg">
<path d="M235.21 18.6385C235.21 18.6385 234.924 18.5946 234.354 18.5068C233.827 18.3751 233.058 18.3092 232.048 18.3092C231.258 18.3092 230.424 18.3751 229.546 18.5068C228.712 18.5946 227.877 18.7483 227.043 18.9678C226.253 19.1874 225.462 19.4508 224.672 19.7581C223.926 20.0216 223.245 20.3289 222.63 20.6802V46.761H216.505V13.7648H222.63V15.3455C223.904 14.5991 225.265 14.0063 226.714 13.5672C228.207 13.1282 229.831 12.8867 231.587 12.8428C232.51 12.8428 233.366 12.9306 234.156 13.1062C234.946 13.2379 235.561 13.3916 236 13.5672L235.21 18.6385Z" fill="#7C7C7C"/>
<path d="M193.485 37.2773C193.485 38.0677 193.595 38.7482 193.815 39.319C194.078 39.8898 194.407 40.3728 194.803 40.7679C195.242 41.1631 195.769 41.4705 196.383 41.69C196.998 41.8656 197.678 41.9534 198.425 41.9534C199.742 41.9534 201.169 41.7119 202.706 41.229C204.243 40.7021 205.735 40.0654 207.184 39.319L209.424 44.4561C207.887 45.4221 206.131 46.1905 204.155 46.7613C202.179 47.3321 200.269 47.6175 198.425 47.6175C196.844 47.6175 195.373 47.4199 194.012 47.0247C192.651 46.6735 191.466 46.1246 190.456 45.3782C189.446 44.5879 188.656 43.578 188.085 42.3486C187.558 41.1192 187.294 39.6264 187.294 37.8701V24.3686C187.294 21.8659 187.821 19.7803 188.875 18.1119C189.973 16.4434 191.444 15.192 193.288 14.3578C195.132 13.5236 197.196 13.1064 199.479 13.1064C201.85 13.1064 203.891 13.5236 205.604 14.3578C207.36 15.192 208.699 16.4214 209.621 18.046C210.587 19.6706 211.07 21.7122 211.07 24.171V33.9184L193.485 34.8405V37.2773ZM205.011 25.3565C205.011 24.171 204.813 23.0734 204.418 22.0635C204.023 21.0536 203.43 20.2414 202.64 19.6267C201.85 19.012 200.774 18.7485 199.413 18.8363C197.964 18.8363 196.8 19.1217 195.922 19.6925C195.044 20.2194 194.407 20.9878 194.012 21.9976C193.661 22.9636 193.485 24.1491 193.485 25.5541V29.1765L205.011 28.5179V25.3565Z" fill="#7C7C7C"/>
<path d="M181.346 13.7646V19.2311L165.606 40.9651L182.268 41.031V46.7609H157.966V41.031L173.707 19.3628L158.559 19.2969V13.7646H181.346Z" fill="#7C7C7C"/>
<path d="M146.802 38.0676C146.802 39.0774 146.978 39.9336 147.329 40.6361C147.724 41.2947 148.273 41.7997 148.975 42.1509C149.678 42.4583 150.512 42.6778 151.478 42.8095L149.7 47.6174C146.67 47.31 144.409 46.366 142.916 44.7854C141.423 43.2047 140.677 40.9654 140.677 38.0676V0.658691H146.802V13.8308H153.652L152.137 19.429H146.802V38.0676Z" fill="#7C7C7C"/>
<path d="M134.618 18.6385C134.618 18.6385 134.332 18.5946 133.762 18.5068C133.235 18.3751 132.466 18.3092 131.456 18.3092C130.666 18.3092 129.832 18.3751 128.954 18.5068C128.12 18.5946 127.285 18.7483 126.451 18.9678C125.661 19.1874 124.87 19.4508 124.08 19.7581C123.334 20.0216 122.653 20.3289 122.038 20.6802V46.761H115.913V13.7648H122.038V15.3455C123.312 14.5991 124.673 14.0063 126.122 13.5672C127.615 13.1282 129.239 12.8867 130.995 12.8428C131.917 12.8428 132.774 12.9306 133.564 13.1062C134.354 13.2379 134.969 13.3916 135.408 13.5672L134.618 18.6385Z" fill="#7C7C7C"/>
<path d="M104.259 24.3687C104.259 22.9637 104.061 21.8221 103.666 20.9439C103.315 20.0658 102.788 19.3852 102.085 18.9022C101.427 18.3754 100.593 18.0021 99.5827 17.7826C98.5728 17.5631 97.4312 17.4533 96.1579 17.4533L96.619 13.1724C99.1656 13.1724 101.295 13.4139 103.007 13.8968C104.764 14.3359 106.169 15.1043 107.223 16.202C108.32 17.2557 109.111 18.6608 109.594 20.417C110.076 22.1733 110.318 24.3467 110.318 26.9373V46.7613C109.835 46.8052 109.264 46.8711 108.606 46.9589C107.947 47.0467 107.223 47.1126 106.432 47.1565C105.642 47.2443 104.808 47.2882 103.929 47.2882C103.095 47.3321 102.239 47.376 101.361 47.4199C100.527 47.4638 99.7144 47.4858 98.9241 47.4858C96.9483 47.4858 95.1042 47.3102 93.3918 46.9589C91.7233 46.6516 90.2524 46.0808 88.9791 45.2465C87.7058 44.3684 86.6959 43.2048 85.9495 41.7559C85.247 40.2631 84.8958 38.419 84.8958 36.2236V30.0986C84.8958 28.3862 85.1372 26.9153 85.6202 25.6859C86.1471 24.4126 86.8496 23.4027 87.7278 22.6563C88.6059 21.866 89.5938 21.2732 90.6915 20.8781C91.8331 20.4829 93.0186 20.2853 94.248 20.2853C95.4774 20.2853 96.7068 20.4609 97.9362 20.8122C99.1656 21.1196 100.329 21.5806 101.427 22.1953C102.568 22.81 103.512 23.5344 104.259 24.3687ZM104.259 28.9789C103.732 28.6716 102.985 28.3203 102.02 27.9252C101.054 27.4861 99.9998 27.1129 98.8582 26.8055C97.7605 26.4982 96.6409 26.3445 95.4993 26.3445C94.9724 26.3445 94.4456 26.4104 93.9187 26.5421C93.3918 26.6738 92.9088 26.8933 92.4697 27.2007C92.0307 27.508 91.6794 27.9691 91.416 28.5838C91.1525 29.1546 91.0208 29.879 91.0208 30.7572V35.2357C91.0208 36.3334 91.1306 37.2993 91.3501 38.1336C91.5696 38.9678 91.9648 39.6703 92.5356 40.2411C93.1064 40.8119 93.9187 41.251 94.9724 41.5583C96.0701 41.8218 97.4971 41.9535 99.2534 41.9535C99.6925 41.9096 100.132 41.8876 100.571 41.8876C101.054 41.8437 101.515 41.7998 101.954 41.7559C102.393 41.712 102.788 41.69 103.139 41.69C103.49 41.6461 103.754 41.6242 103.929 41.6242C104.149 41.5803 104.259 41.5583 104.259 41.5583V28.9789Z" fill="#7C7C7C"/>
<path d="M73.546 24.237C73.546 23.315 73.3703 22.5027 73.0191 21.8002C72.7117 21.0977 72.2727 20.5269 71.7019 20.0878C71.1311 19.6487 70.4725 19.3194 69.7261 19.0999C69.0235 18.8364 68.2771 18.7047 67.4868 18.7047C66.916 18.7047 66.2793 18.7706 65.5768 18.9023C64.8743 19.034 64.1279 19.2536 63.3376 19.5609C62.5472 19.8683 61.7569 20.2415 60.9666 20.6805C61.0983 21.1635 61.1861 21.6904 61.23 22.2612C61.2739 22.832 61.2959 23.4247 61.2959 24.0394V46.7614H55.3684V24.237C55.3684 23.315 55.1928 22.5027 54.8415 21.8002C54.5342 21.0977 54.1171 20.5269 53.5902 20.0878C53.0633 19.6487 52.4266 19.3194 51.6802 19.0999C50.9338 18.8364 50.1654 18.7047 49.3751 18.7047C48.7165 18.7047 48.0359 18.7706 47.3334 18.9023C46.6748 19.034 46.0162 19.2536 45.3576 19.5609C44.699 19.8243 43.9965 20.1537 43.25 20.5488V46.7614H37.125V13.7652H43.25V15.6093C43.7769 15.258 44.4136 14.9067 45.16 14.5555C45.9064 14.2042 46.7187 13.8969 47.5969 13.6334C48.475 13.37 49.419 13.2383 50.4289 13.2383C51.5704 13.2383 52.6681 13.348 53.7219 13.5676C54.7757 13.7871 55.7636 14.1603 56.6856 14.6872C57.6077 15.1702 58.398 15.8068 59.0566 16.5972C59.8909 15.9825 60.7909 15.4336 61.7569 14.9507C62.7668 14.4238 63.8425 14.0067 64.9841 13.6993C66.1257 13.392 67.3112 13.2383 68.5406 13.2383C70.0334 13.2383 71.4384 13.4359 72.7556 13.831C74.0729 14.1823 75.2364 14.797 76.2463 15.6751C77.2561 16.5094 78.0464 17.629 78.6172 19.034C79.2319 20.3951 79.5393 22.0636 79.5393 24.0394V46.7614H73.546V24.237Z" fill="#7C7C7C"/>
<path d="M25.6857 7.57398C24.8075 7.13491 23.8855 6.78366 22.9195 6.52021C21.9536 6.21286 20.9657 5.99333 19.9558 5.8616C18.9898 5.72988 18.0019 5.66402 16.9921 5.66402C16.1139 5.66402 15.1699 5.75184 14.1601 5.92747C13.1941 6.10309 12.2501 6.41044 11.328 6.84952C10.4499 7.24468 9.72543 7.81547 9.15464 8.56189C8.58385 9.30831 8.29845 10.2304 8.29845 11.328C8.29845 12.3818 8.62775 13.3258 9.28636 14.1601C9.94497 14.9943 10.8231 15.7407 11.9208 16.3993C13.0185 17.0579 14.2479 17.6946 15.609 18.3093C17.014 18.8801 18.463 19.4948 19.9558 20.1534C21.4486 20.812 22.8756 21.5584 24.2367 22.3926C25.6418 23.183 26.8931 24.127 27.9908 25.2246C29.0885 26.2784 29.9666 27.5298 30.6252 28.9787C31.2838 30.4276 31.6131 32.1181 31.6131 34.05C31.6131 36.421 31.1741 38.4627 30.2959 40.175C29.4178 41.8874 28.2103 43.2924 26.6736 44.3901C25.1368 45.4878 23.4025 46.2781 21.4706 46.7611C19.5387 47.288 17.5189 47.5514 15.4114 47.5514C13.4795 47.5514 11.5695 47.288 9.68152 46.7611C7.83743 46.2781 6.08114 45.5537 4.41267 44.5877C2.7881 43.6217 1.31721 42.3923 0 40.8995L3.49062 36.882C4.41267 37.9358 5.5323 38.8359 6.84951 39.5823C8.21064 40.3287 9.61566 40.8995 11.0646 41.2947C12.5574 41.6459 14.0064 41.8216 15.4114 41.8216C16.6408 41.8216 17.8263 41.6679 18.9679 41.3605C20.1095 41.0532 21.1413 40.5921 22.0633 39.9774C23.0293 39.3188 23.7757 38.5066 24.3026 37.5406C24.8295 36.5307 25.0929 35.3233 25.0929 33.9183C25.0929 32.645 24.7636 31.5253 24.105 30.5594C23.4903 29.5934 22.6341 28.7372 21.5365 27.9908C20.4388 27.2444 19.1874 26.5638 17.7824 25.9491C16.4213 25.2905 15.0162 24.6539 13.5673 24.0392C12.1184 23.3806 10.7133 22.678 9.35222 21.9316C7.9911 21.1852 6.7617 20.329 5.66402 19.363C4.56634 18.3971 3.6882 17.2775 3.02959 16.0042C2.37099 14.6869 2.04168 13.1721 2.04168 11.4598C2.04168 9.35222 2.48075 7.57398 3.3589 6.12505C4.28095 4.67611 5.48839 3.51257 6.98124 2.63443C8.47408 1.71238 10.0986 1.05377 11.8549 0.658607C13.6112 0.219536 15.3455 0 17.0579 0C18.2434 0 19.4289 0.087815 20.6144 0.263444C21.7999 0.439073 22.9634 0.702515 24.105 1.05377C25.2905 1.40503 26.3882 1.86605 27.3981 2.43685L25.6857 7.57398Z" fill="#7C7C7C"/>
</svg>
